<?xml version="1.0" standalone="no"?>
<!DOCTYPE svg PUBLIC "-//W3C//DTD SVG 20010904//EN"
 "http://www.w3.org/TR/2001/REC-SVG-20010904/DTD/svg10.dtd">
<svg version="1.0" xmlns="http://www.w3.org/2000/svg"
 width="4475.000000pt" height="1981.000000pt" viewBox="0 0 4475.000000 1981.000000"
 preserveAspectRatio="xMidYMid meet">
<metadata>
Created by potrace 1.16, written by Peter Selinger 2001-2019
</metadata>
<g transform="translate(0.000000,1981.000000) scale(0.100000,-0.100000)"
fill="#000000" stroke="none">
<path d="M41330 19675 l0 -135 255 0 255 0 0 -670 0 -670 165 0 165 0 0 670 0
670 255 0 255 0 0 135 0 135 -675 0 -675 0 0 -135z"/>
<path d="M42886 19753 c-4 -32 -29 -366 -56 -743 -27 -377 -52 -713 -56 -747
l-6 -63 161 0 c89 0 161 1 161 3 0 2 13 215 30 473 16 258 33 569 36 692 4
122 9 220 11 218 2 -2 28 -97 58 -212 30 -115 121 -422 202 -681 l146 -473
172 0 171 0 162 498 c89 273 186 583 214 687 51 182 53 188 60 145 3 -25 7
-111 7 -191 1 -80 15 -358 31 -619 17 -261 30 -489 30 -507 l0 -33 165 0 165
0 0 38 c0 20 -25 370 -55 777 -30 407 -55 752 -55 768 l0 27 -242 0 -243 0
-142 -408 c-79 -224 -163 -483 -188 -577 -25 -93 -48 -177 -51 -185 -3 -8 -25
62 -49 155 -24 94 -109 359 -189 589 -80 231 -146 421 -146 423 0 2 -112 3
-249 3 l-249 0 -6 -57z"/>
<path d="M4665 17614 c-192 -35 -411 -191 -561 -400 -107 -149 -211 -365 -287
-594 -88 -267 -114 -384 -169 -750 -15 -104 -16 -678 0 -755 6 -33 18 -98 27
-145 42 -238 136 -497 242 -670 137 -222 306 -372 457 -405 26 -5 28 -9 21
-38 -3 -18 -10 -135 -14 -262 -7 -211 -10 -237 -35 -310 -14 -44 -42 -136 -62
-205 -44 -156 -171 -550 -183 -569 -11 -17 -40 -8 -47 16 -23 75 -63 167 -93
213 -39 60 -101 100 -156 100 -58 0 -123 -30 -160 -72 -38 -45 -80 -159 -90
-248 -4 -30 -11 -71 -16 -90 -5 -19 -18 -136 -29 -260 -24 -267 -28 -811 -8
-855 12 -27 54 -55 82 -55 34 0 83 59 99 117 17 61 42 221 52 338 4 39 15 138
25 220 10 83 22 179 25 215 11 108 35 224 50 239 12 12 21 8 63 -35 26 -27 58
-56 71 -64 17 -11 29 -39 47 -105 28 -106 29 -127 9 -220 -53 -247 -30 -776
39 -914 7 -14 16 -39 20 -56 4 -16 34 -84 66 -151 84 -173 183 -289 323 -377
15 -10 27 -22 27 -27 0 -10 -92 -76 -190 -134 -59 -35 -374 -196 -384 -196 -5
0 -172 -79 -341 -160 -113 -54 -125 -58 -205 -62 l-85 -3 3 118 c1 65 7 139
12 165 6 26 14 292 20 592 5 300 12 579 15 620 12 143 34 270 49 292 31 44 15
327 -20 375 -74 99 -222 41 -258 -102 -37 -150 -61 -577 -53 -956 l6 -277 -83
-4 c-97 -5 -137 -24 -178 -83 -58 -84 -53 -233 14 -430 38 -113 99 -247 146
-325 30 -49 28 -76 -16 -150 -94 -161 -123 -285 -129 -540 -5 -190 -2 -232 32
-450 35 -231 112 -523 180 -685 31 -73 151 -309 200 -390 157 -265 445 -573
711 -758 89 -62 87 -59 115 -166 44 -169 184 -369 436 -618 121 -120 322 -236
473 -273 86 -21 120 -41 142 -84 48 -95 200 -256 311 -329 224 -149 644 -331
830 -361 37 -6 69 -15 70 -21 1 -5 -33 -22 -76 -36 -164 -55 -230 -111 -277
-237 -9 -24 -36 -49 -99 -92 -320 -221 -793 -715 -1038 -1085 -74 -111 -222
-396 -270 -520 -70 -180 -131 -388 -152 -520 -5 -33 -12 -72 -16 -88 l-7 -27
101 0 c116 0 114 -2 127 102 11 93 94 370 144 483 5 11 23 54 41 95 94 224
208 408 404 655 163 204 265 318 463 518 176 177 228 219 289 232 45 9 74 -10
128 -83 25 -35 91 -110 146 -167 54 -57 99 -106 99 -110 0 -20 -28 -49 -92
-96 -185 -133 -231 -171 -347 -284 -293 -285 -551 -621 -721 -939 -77 -145
-190 -383 -190 -401 0 -3 605 -5 1345 -5 l1346 0 41 88 c22 48 66 123 96 167
107 154 122 180 142 240 11 33 24 105 30 160 9 100 29 176 54 205 7 8 16 23
19 32 8 22 50 24 67 3 9 -11 27 -13 84 -9 51 5 100 1 176 -14 129 -25 410 -36
564 -22 84 7 115 7 135 -3 25 -12 26 -16 24 -91 -2 -70 -5 -85 -36 -135 -58
-94 -101 -187 -180 -386 -41 -105 -78 -200 -82 -212 l-6 -23 1623 0 1623 0 1
258 c1 232 4 272 29 417 15 88 30 167 35 175 4 8 10 33 14 55 32 185 191 530
333 723 338 459 819 685 1368 643 110 -9 150 -17 265 -55 241 -79 436 -175
526 -259 34 -31 96 -80 138 -107 102 -67 158 -120 223 -212 55 -79 94 -118
143 -143 24 -13 30 -13 40 0 29 35 23 40 475 -405 132 -130 292 -292 355 -360
168 -182 451 -517 590 -698 l25 -33 124 3 124 3 -118 150 c-190 241 -406 495
-628 738 -80 87 -436 427 -637 608 -114 103 -228 198 -330 274 -36 27 -121
103 -190 170 -230 222 -405 327 -775 465 -110 40 -195 60 -310 71 -115 10
-122 12 -176 50 -91 63 -208 106 -399 148 -110 24 -304 51 -367 51 -53 0 -54
9 -12 98 69 143 84 288 53 485 -14 85 -17 173 -15 522 2 390 1 425 -18 494
-35 133 -110 191 -282 216 -52 8 -112 17 -134 20 -22 3 -55 8 -72 11 -33 5
-33 5 -33 62 0 32 7 109 14 172 8 63 20 212 26 330 20 385 14 356 82 384 24
10 58 24 77 32 42 18 64 6 112 -61 61 -85 130 -108 169 -58 16 21 21 37 17 64
-4 31 -83 241 -108 289 -51 96 -133 243 -177 317 -30 51 -52 99 -49 106 4 10
36 16 119 20 200 10 451 101 652 236 242 161 490 502 630 866 15 39 43 106 63
150 37 83 75 269 89 436 9 106 -21 160 -97 174 -41 8 -287 -33 -394 -65 -155
-47 -178 -52 -198 -43 -19 9 -13 16 59 72 140 110 175 174 254 466 23 84 42
115 70 115 31 0 173 77 253 138 178 134 307 275 455 497 266 399 402 930 402
1568 0 445 -79 859 -260 1363 -75 208 -129 343 -151 374 -24 36 -64 134 -114
285 -126 376 -179 504 -308 735 -133 239 -367 495 -577 632 -83 54 -186 102
-273 127 -69 20 -94 22 -235 19 -137 -4 -167 -7 -233 -30 -91 -31 -241 -114
-285 -157 -94 -92 -172 -229 -205 -360 -41 -163 -223 -535 -474 -971 -119
-206 -141 -242 -259 -405 -49 -69 -64 -85 -78 -85 -4 0 -35 55 -69 123 -63
125 -170 293 -243 382 -40 49 -218 257 -324 379 -30 33 -105 124 -167 201 -63
77 -129 150 -147 163 -67 44 -141 19 -172 -58 -21 -53 -20 -89 3 -148 24 -61
14 -86 -20 -51 -159 164 -361 414 -491 605 -204 302 -289 473 -408 819 -83
242 -109 294 -160 315 -45 18 -84 3 -143 -54 -61 -60 -85 -115 -118 -271 -12
-55 -29 -129 -39 -165 -49 -182 -95 -441 -105 -590 -13 -191 -14 -247 -3 -282
8 -29 8 -44 -1 -64 l-11 -26 -98 100 c-152 155 -273 215 -489 241 -51 6 -234
8 -475 5 -343 -6 -403 -4 -468 10 -41 9 -100 22 -130 27 -184 36 -403 143
-645 317 -206 148 -271 201 -529 435 -220 199 -285 230 -366 175 -59 -41 -74
-70 -80 -161 -5 -75 -7 -82 -27 -85 -18 -3 -31 10 -67 65 -47 72 -170 198
-248 251 -185 127 -390 180 -573 146z m240 -228 c207 -49 383 -186 587 -456
100 -133 134 -202 148 -303 5 -40 16 -99 24 -132 8 -33 27 -114 42 -180 40
-180 100 -395 146 -523 16 -46 27 -90 24 -99 -6 -14 -22 -15 -129 -10 -166 9
-383 54 -519 108 -26 11 -53 19 -60 19 -25 0 -294 137 -404 206 -60 38 -153
106 -207 151 -101 84 -126 95 -162 69 -15 -10 -19 -25 -18 -57 1 -24 -4 -69
-12 -99 -31 -127 -27 -277 11 -367 74 -176 159 -313 256 -414 149 -154 439
-349 591 -398 54 -18 69 -36 55 -66 -11 -24 -36 -39 -161 -94 -92 -41 -213
-128 -299 -215 -70 -70 -214 -277 -298 -426 -47 -84 -67 -110 -86 -110 -7 0
-44 27 -82 60 -207 178 -374 519 -437 890 -7 41 -21 111 -31 155 -15 67 -17
127 -17 365 1 157 6 317 11 355 38 256 51 333 60 355 5 14 12 48 16 75 4 28
16 79 27 115 11 36 29 97 41 135 54 182 159 417 244 548 69 104 223 254 304
295 116 59 223 74 335 48z m4379 -69 c13 -29 38 -111 55 -182 89 -368 159
-536 366 -879 101 -166 297 -395 450 -524 207 -174 418 -308 453 -286 28 18
25 46 -12 157 -36 105 -46 177 -24 177 19 0 86 -76 254 -290 196 -250 281
-365 362 -492 85 -133 182 -319 182 -351 0 -16 -19 -51 -49 -90 -91 -119 -110
-180 -69 -224 55 -59 137 -12 292 166 218 251 398 524 560 851 91 181 92 185
110 188 18 4 22 -15 36 -193 6 -71 16 -149 21 -173 5 -24 16 -89 23 -145 8
-56 22 -138 30 -182 9 -44 25 -129 36 -190 10 -60 28 -157 39 -215 11 -58 25
-147 31 -198 5 -50 16 -116 23 -144 7 -33 12 -126 12 -243 -1 -167 -4 -200
-24 -271 -28 -100 -58 -138 -155 -198 -101 -63 -161 -75 -241 -46 -33 11 -67
23 -77 26 -9 4 -25 -3 -38 -16 -29 -29 -21 -73 23 -118 47 -49 85 -69 154 -82
118 -21 240 18 420 133 85 54 120 102 158 212 24 67 29 103 34 225 8 184 -4
400 -29 515 -10 50 -22 118 -25 152 -3 35 -12 78 -20 96 -7 18 -17 66 -20 107
-4 41 -14 90 -21 108 -8 19 -20 73 -29 120 -8 48 -21 112 -30 142 -8 30 -15
71 -15 91 0 20 -7 56 -15 79 -8 24 -19 77 -25 119 -5 42 -16 112 -24 156 -17
92 -36 342 -36 460 1 96 20 208 44 253 9 18 24 74 32 125 21 123 32 145 95
198 72 61 114 85 198 114 59 21 89 25 183 25 62 -1 131 -5 153 -9 50 -11 139
-45 157 -60 7 -6 51 -36 98 -68 182 -121 378 -325 488 -510 98 -164 230 -430
241 -483 9 -49 97 -342 112 -375 9 -21 42 -139 64 -235 44 -187 57 -255 64
-336 7 -91 29 -143 59 -144 7 0 16 -10 21 -22 15 -37 77 -248 110 -371 11 -42
29 -110 40 -150 10 -39 29 -110 41 -157 12 -47 34 -119 48 -160 23 -64 26 -92
26 -195 1 -183 -14 -380 -35 -480 -10 -49 -19 -108 -19 -130 0 -23 -8 -68 -19
-101 -10 -32 -23 -81 -29 -109 -16 -77 -54 -184 -103 -290 -10 -22 -30 -67
-44 -100 -48 -108 -76 -158 -163 -290 -110 -166 -195 -268 -316 -380 -100 -92
-126 -112 -126 -98 0 23 41 194 59 245 11 32 25 113 31 180 6 68 15 142 20
164 5 23 15 86 21 140 6 55 19 125 30 156 23 69 25 136 4 165 -8 12 -31 31
-50 43 -51 32 -183 31 -302 -3 -48 -13 -134 -36 -190 -51 -57 -14 -149 -38
-205 -52 -117 -30 -210 -58 -283 -85 -28 -11 -56 -19 -63 -19 -22 0 -13 27 26
77 48 61 117 171 153 243 41 84 79 171 79 184 0 6 11 38 25 71 21 50 25 77 25
163 l0 102 -41 45 c-76 82 -143 81 -313 -4 -207 -105 -297 -211 -233 -275 36
-35 75 -34 193 9 98 36 134 42 134 25 0 -41 -120 -283 -225 -452 -74 -121 -72
-193 7 -234 30 -15 58 -15 114 1 18 6 24 1 33 -28 16 -46 41 -68 88 -74 44 -6
162 10 238 32 28 8 98 26 158 40 94 22 209 49 370 87 29 8 51 8 57 2 6 -6 6
-58 0 -139 -9 -122 -14 -172 -40 -370 -22 -170 -241 -808 -328 -955 -37 -62
-115 -138 -205 -199 -26 -18 -54 -42 -62 -54 -19 -30 -47 -165 -39 -191 40
-132 289 -128 689 11 131 46 163 51 172 27 9 -23 -29 -165 -79 -302 -22 -59
-47 -124 -54 -145 -23 -61 -59 -129 -133 -246 -294 -467 -613 -699 -1145 -832
-111 -28 -138 -50 -160 -127 -13 -49 -14 -69 -5 -113 17 -83 56 -194 111 -311
38 -81 48 -111 40 -121 -6 -7 -46 -19 -89 -27 -43 -7 -130 -29 -193 -47 -63
-19 -137 -41 -165 -48 -27 -8 -59 -19 -70 -24 -11 -6 -56 -24 -100 -41 -136
-53 -363 -183 -575 -328 -162 -111 -211 -152 -336 -276 -104 -104 -148 -138
-305 -241 -294 -192 -489 -332 -1094 -785 -745 -557 -781 -583 -1058 -744
-121 -71 -176 -96 -300 -137 -189 -63 -362 -109 -448 -119 -36 -5 -83 -16
-103 -24 -21 -9 -84 -20 -139 -26 -56 -5 -120 -14 -142 -20 -22 -5 -139 -14
-260 -20 -234 -12 -667 0 -735 20 -19 5 -70 14 -114 20 -107 13 -211 47 -471
153 -94 38 -300 138 -368 179 -70 42 -120 92 -153 153 l-19 35 28 26 c26 24
27 28 14 47 -20 32 -96 70 -235 117 -242 83 -376 170 -600 392 -248 246 -283
298 -204 298 20 1 66 7 102 15 73 17 122 19 750 40 794 26 983 28 1003 13 12
-9 20 -37 27 -93 29 -226 86 -402 154 -469 39 -39 97 -66 144 -66 11 0 46 10
79 22 91 34 229 181 443 469 146 197 181 252 210 325 36 89 36 89 115 143 286
194 392 276 710 549 197 170 386 290 575 366 171 68 260 135 318 238 19 35 72
96 133 155 56 54 128 135 161 181 63 88 128 222 128 267 0 15 13 57 30 95 63
144 62 214 -4 285 -37 39 -69 44 -114 21 -29 -15 -72 -89 -72 -124 0 -12 -9
-44 -20 -71 -11 -28 -22 -88 -26 -133 -12 -151 -54 -230 -158 -298 -77 -50
-107 -82 -187 -199 -35 -52 -80 -106 -101 -121 -20 -15 -104 -56 -185 -90
-297 -126 -413 -202 -703 -458 -226 -200 -253 -222 -500 -412 -124 -95 -265
-207 -313 -247 -157 -132 -143 -126 -282 -119 -66 3 -226 13 -355 21 -129 8
-399 18 -600 21 -201 3 -379 7 -395 10 -18 2 -51 23 -78 48 -50 45 -99 73
-178 101 -26 9 -69 30 -95 47 -72 47 -243 222 -301 308 -159 237 -351 696
-368 882 l-7 76 30 7 c17 3 45 3 64 0 19 -4 67 1 113 12 44 9 100 16 125 15
60 -3 115 19 230 92 117 74 456 246 690 351 382 170 725 339 744 367 20 28 20
78 1 126 -33 77 -102 122 -201 130 -56 4 -297 -23 -434 -49 -30 -5 -102 -19
-160 -29 -126 -24 -251 -51 -340 -75 -36 -9 -101 -26 -145 -37 -44 -11 -109
-28 -145 -38 -36 -9 -119 -30 -185 -45 -66 -15 -151 -37 -190 -48 -46 -13
-101 -21 -160 -21 l-90 -1 -63 47 c-49 38 -364 296 -514 423 -16 13 -28 28
-28 34 0 19 42 39 165 79 66 22 131 45 145 51 14 5 57 22 95 37 134 51 281
119 360 167 269 165 514 357 735 576 184 183 251 278 258 367 4 49 2 56 -26
84 -33 33 -52 36 -101 19 -55 -19 -56 -2 -8 122 70 179 136 383 172 529 8 36
27 108 40 160 53 200 131 703 170 1095 8 77 21 172 29 210 25 124 28 172 16
287 -12 122 -28 160 -70 166 -44 7 -70 -18 -87 -81 -21 -73 -44 -92 -150 -123
-95 -28 -290 -32 -388 -9 -33 8 -94 18 -136 21 -72 6 -77 5 -93 -17 -9 -13
-16 -37 -16 -53 0 -61 131 -147 308 -202 93 -29 241 -38 329 -21 35 7 43 6 51
-10 10 -19 10 -23 -28 -243 -10 -63 -31 -187 -45 -275 -14 -88 -33 -196 -40
-240 -8 -44 -26 -152 -41 -240 -41 -255 -123 -612 -200 -865 -111 -367 -126
-404 -175 -441 -97 -74 -208 -104 -272 -74 -51 24 -152 131 -264 282 l-99 133
-19 159 c-12 109 -16 194 -12 267 6 128 -6 172 -58 204 -18 11 -36 28 -40 38
-12 32 -27 247 -21 306 4 43 22 94 62 180 138 296 265 674 359 1066 18 74 49
198 69 275 31 116 36 150 31 200 -8 77 -3 91 99 244 144 216 253 327 446 455
152 100 161 108 187 149 14 23 37 50 50 60 52 41 20 82 -130 167 -177 100
-461 302 -611 435 -92 82 -184 196 -216 267 -24 56 -40 221 -21 232 7 5 35
-10 67 -36 129 -102 334 -226 455 -274 218 -87 420 -118 703 -108 l194 7 54
-51 c64 -60 98 -76 123 -58 24 17 17 55 -35 196 -53 146 -88 267 -100 350 -5
36 -14 82 -20 104 -6 21 -9 47 -7 58 3 10 1 33 -4 51 -17 54 -29 128 -39 222
-6 67 -19 118 -50 200 -47 121 -88 334 -93 472 -3 112 7 109 161 -35 320 -302
669 -561 892 -664 174 -81 277 -114 465 -150 149 -28 413 -30 600 -4 72 10
186 16 290 16 198 0 281 -16 394 -75 88 -47 233 -192 467 -467 47 -56 72 -78
89 -78 12 0 25 6 28 13 8 21 -27 92 -78 159 -27 36 -45 71 -45 86 0 15 9 133
20 262 11 129 27 319 35 421 18 233 68 552 109 704 8 28 17 62 20 78 10 43 35
33 60 -26z m-6034 -7556 c0 -69 33 -188 79 -287 80 -169 292 -457 437 -593 80
-75 248 -192 331 -231 58 -28 93 -58 93 -80 0 -10 -10 -30 -22 -45 -48 -62
-31 -183 72 -500 79 -245 184 -460 297 -608 131 -172 232 -259 399 -344 135
-69 129 -78 -60 -93 -160 -12 -365 -45 -446 -72 -117 -38 -133 -34 -263 75
-226 190 -463 455 -608 680 -140 217 -290 563 -357 822 -70 272 -108 461 -128
643 -15 133 -16 169 -5 265 19 167 63 292 138 395 13 18 29 30 34 27 5 -4 9
-28 9 -54z m9046 -1972 c-32 -140 -64 -342 -86 -549 -6 -52 -18 -163 -27 -247
-17 -158 -16 -166 23 -300 5 -18 -8 -36 -63 -95 -38 -40 -81 -90 -97 -111
-115 -152 -597 -359 -1086 -466 -227 -50 -289 -65 -349 -82 -35 -11 -77 -19
-92 -19 -61 0 -420 -132 -544 -200 -320 -174 -500 -389 -603 -720 -24 -76 -52
-278 -52 -371 0 -68 35 -393 44 -407 10 -17 45 -269 40 -289 -3 -11 2 -93 11
-181 12 -122 14 -166 5 -182 -22 -41 -86 -58 -271 -69 -96 -6 -214 -13 -264
-17 -84 -5 -426 19 -447 32 -4 3 -59 12 -121 19 -61 7 -146 19 -187 25 -41 7
-90 14 -108 16 -18 3 -35 11 -38 19 -7 18 51 106 120 182 116 127 230 361 287
588 11 42 24 60 83 115 38 36 180 171 316 300 135 129 333 316 440 415 215
198 499 480 745 741 148 156 225 244 499 568 69 82 137 148 230 224 72 58 164
138 204 177 69 68 72 73 72 118 0 45 2 47 43 68 23 11 65 43 92 69 28 26 96
82 152 124 100 75 456 316 466 316 3 0 50 27 103 61 102 63 178 102 347 174
127 55 136 51 113 -46z m-5350 -1024 c3 -8 -1 -24 -10 -37 -25 -37 -215 -238
-285 -300 -66 -61 -97 -71 -123 -40 -23 26 -102 315 -96 353 3 22 9 24 78 30
41 3 155 6 253 7 147 2 179 0 183 -13z m5811 -660 c17 -201 25 -188 -196 -337
-143 -96 -360 -231 -456 -284 -11 -6 -38 -21 -60 -34 -22 -13 -65 -36 -95 -53
-30 -16 -68 -38 -85 -47 -35 -21 -339 -173 -435 -218 -36 -16 -105 -48 -153
-71 -49 -23 -91 -41 -94 -41 -3 0 -19 -6 -36 -14 -62 -28 -133 -58 -197 -83
-36 -13 -103 -40 -150 -58 -101 -40 -143 -55 -270 -96 -52 -17 -110 -37 -128
-45 -18 -8 -39 -14 -47 -14 -8 0 -41 -8 -72 -19 -171 -56 -408 -96 -573 -96
-198 0 -205 7 -179 178 6 40 16 78 21 85 7 7 36 12 77 12 36 0 93 5 126 11
278 48 320 59 595 148 163 53 393 137 520 191 41 17 87 35 101 39 14 5 34 13
45 19 26 15 132 62 138 62 18 0 518 248 641 318 151 86 320 184 355 207 19 12
80 51 135 86 101 64 356 242 409 286 16 13 34 22 40 20 7 -2 16 -61 23 -152z
m29 -560 c8 -20 -32 -146 -66 -210 -44 -82 -74 -127 -158 -232 -123 -154 -211
-220 -547 -413 -162 -93 -572 -305 -686 -354 -24 -11 -57 -26 -74 -33 -47 -22
-403 -163 -465 -185 -164 -56 -355 -117 -430 -137 -47 -13 -107 -29 -135 -36
-27 -8 -79 -19 -115 -24 -36 -6 -81 -16 -100 -21 -19 -6 -112 -14 -205 -17
-146 -5 -172 -4 -183 9 -13 17 -42 137 -42 178 0 41 12 48 90 59 113 14 258
40 320 55 30 8 93 24 140 36 99 25 396 120 490 157 182 71 451 178 500 200 30
14 73 32 94 41 163 70 585 294 836 444 111 67 398 264 540 372 91 69 171 125
178 125 7 1 15 -6 18 -14z m-4985 -497 c6 -13 38 -48 70 -78 33 -31 59 -63 59
-72 0 -16 -108 -104 -225 -184 -209 -143 -643 -364 -885 -451 -86 -31 -207
-63 -238 -63 -34 0 -89 45 -176 144 -46 52 -61 78 -71 122 l-13 55 39 25 c22
13 65 31 97 39 31 8 77 21 102 29 25 7 81 24 125 36 479 136 785 254 1000 383
70 42 100 46 116 15z m289 -395 c55 -105 70 -175 47 -220 -29 -56 -299 -305
-443 -409 -219 -158 -499 -325 -543 -324 -20 1 -190 136 -198 158 -4 9 0 20
12 26 83 49 354 237 505 351 221 166 376 312 523 494 10 12 25 21 34 19 9 -2
37 -44 63 -95z"/>
<path d="M13198 15040 c-11 -7 -18 -23 -18 -40 0 -32 29 -65 95 -107 121 -78
247 -204 274 -274 22 -59 31 -179 21 -277 -11 -100 -45 -307 -62 -377 -5 -22
-16 -65 -23 -96 -7 -31 -20 -79 -28 -105 -56 -170 -17 -244 127 -244 36 0 67
-4 70 -8 3 -5 -3 -20 -12 -33 -9 -13 -37 -64 -62 -114 -43 -85 -151 -263 -226
-369 -47 -67 -47 -115 0 -162 20 -20 44 -34 58 -34 78 1 201 119 333 320 101
154 117 185 151 284 19 58 25 93 22 130 -8 98 -86 174 -182 178 -26 0 -49 4
-51 8 -2 4 4 29 14 56 55 143 96 295 121 449 12 69 12 262 0 305 -33 126 -96
244 -166 312 -62 61 -157 129 -234 168 -62 31 -191 49 -222 30z"/>
<path d="M7433 13898 c-53 -56 -12 -127 102 -178 93 -42 290 -93 460 -121 33
-5 114 -18 180 -29 66 -11 153 -23 194 -27 41 -5 76 -13 78 -19 2 -7 -17 -25
-42 -40 -357 -222 -601 -541 -791 -1034 -43 -110 -104 -372 -104 -442 0 -69
16 -105 43 -95 22 8 34 34 131 274 96 236 135 319 209 442 116 195 264 381
301 381 11 0 6 -36 -14 -111 -53 -194 -100 -595 -72 -613 6 -4 35 6 64 21 52
27 57 28 197 26 115 -2 157 -6 213 -24 183 -56 244 -227 127 -354 -51 -56
-132 -85 -233 -85 -101 0 -253 32 -309 64 -26 15 -51 25 -57 21 -14 -9 -12
-116 5 -210 8 -44 19 -109 25 -145 44 -281 189 -685 331 -926 101 -170 247
-337 353 -404 31 -19 70 -44 88 -55 17 -11 33 -25 35 -31 10 -31 -196 -73
-397 -80 -185 -8 -265 3 -405 52 -123 44 -169 48 -173 17 -7 -49 118 -143 263
-198 219 -82 635 -66 948 36 31 11 62 19 68 19 26 0 229 100 343 168 172 104
421 312 540 451 80 94 168 221 239 343 96 167 137 265 162 388 28 138 8 224
-55 237 -34 6 -44 32 -60 155 -42 336 -133 626 -294 943 -153 300 -401 584
-634 724 -108 65 -98 81 51 81 171 0 269 28 251 73 -6 18 -90 52 -163 68 -102
21 -421 49 -671 59 -146 6 -346 20 -445 31 -99 11 -205 22 -235 25 -30 3 -71
10 -90 15 -19 4 -80 13 -135 19 -55 6 -125 17 -155 25 -30 7 -84 16 -120 20
-36 4 -108 19 -160 33 -140 37 -161 38 -187 10z"/>
<path d="M11930 12387 c0 -13 7 -42 16 -63 9 -22 20 -52 24 -69 59 -229 82
-315 94 -340 120 -253 200 -448 231 -560 48 -180 69 -641 41 -890 -22 -182
-33 -259 -55 -375 -48 -241 -61 -314 -57 -317 9 -9 67 63 131 162 114 179 205
329 205 339 0 5 6 17 13 25 78 95 113 505 68 798 -10 67 -22 126 -25 131 -3 5
-12 38 -21 73 -49 215 -114 386 -210 558 -56 98 -120 184 -236 317 -48 55
-111 128 -140 163 -61 73 -79 84 -79 48z"/>
<path d="M10970 12126 c0 -20 5 -57 11 -83 6 -27 19 -84 30 -128 61 -265 72
-375 63 -630 -5 -121 -9 -353 -9 -515 -1 -241 -4 -308 -18 -368 -9 -40 -17
-97 -17 -125 0 -55 -27 -204 -62 -347 -55 -223 -132 -404 -245 -570 -119 -176
-120 -180 -62 -180 36 0 101 58 241 215 234 261 418 635 442 898 4 37 11 80
17 95 23 59 51 222 56 327 9 174 -50 512 -128 740 -6 17 -17 50 -24 75 -55
185 -250 618 -282 628 -9 2 -13 -8 -13 -32z"/>
<path d="M11824 9615 c-7 -19 -14 -40 -14 -47 0 -21 -39 -117 -98 -238 -125
-260 -240 -434 -401 -605 -70 -74 -156 -192 -172 -234 -13 -32 9 -54 52 -53
43 1 221 91 302 152 78 59 181 161 220 217 114 166 232 719 176 825 -16 30
-48 22 -65 -17z"/>
<path d="M20095 14281 c-16 -10 -39 -28 -50 -41 -19 -21 -20 -38 -23 -414 l-3
-392 23 -35 c47 -69 47 -69 491 -69 l397 0 0 -1247 c0 -791 4 -1261 10 -1284
13 -48 56 -86 110 -98 60 -14 880 -14 940 0 54 12 97 50 110 98 6 23 10 493
10 1284 l0 1247 398 0 c443 0 443 0 490 69 l23 35 -3 392 -3 392 -25 27 c-55
59 41 55 -1472 55 -1339 0 -1394 -1 -1423 -19z"/>
<path d="M24008 14290 c-51 -15 -98 -51 -122 -93 -30 -52 -499 -1276 -556
-1452 -105 -325 -112 -408 -108 -1275 3 -632 4 -656 23 -695 11 -22 36 -48 55
-60 33 -19 54 -20 443 -23 269 -2 427 1 461 8 61 12 101 47 116 101 6 19 10
191 10 401 l0 368 435 0 435 0 0 -337 c0 -367 7 -442 42 -481 55 -58 43 -57
538 -57 439 0 456 1 490 20 74 44 71 -5 67 890 l-3 800 -26 105 c-14 58 -47
168 -72 245 -68 209 -531 1412 -560 1455 -15 23 -45 47 -77 64 l-53 26 -755
-1 c-416 0 -768 -4 -783 -9z m872 -987 c28 -25 44 -70 151 -416 66 -214 119
-391 116 -393 -2 -2 -175 -3 -384 -2 l-380 3 108 350 c60 193 114 366 119 387
6 20 23 50 39 67 28 30 32 31 115 31 79 0 88 -2 116 -27z"/>
<path d="M27885 14293 c-273 -32 -441 -80 -586 -169 -247 -150 -375 -389 -399
-749 -13 -182 -13 -1578 0 -1760 35 -508 284 -786 794 -884 181 -35 383 -43
1076 -39 638 3 656 4 690 23 69 41 70 46 70 460 0 414 -1 419 -70 460 -34 19
-55 20 -640 25 -586 5 -606 6 -650 26 -57 26 -107 82 -117 131 -4 21 -8 331
-8 688 l0 650 24 49 c30 61 89 100 175 115 40 7 260 11 617 11 618 0 599 -2
647 69 l23 35 -3 392 -3 392 -25 27 c-54 58 -15 55 -832 54 -414 -1 -766 -4
-783 -6z"/>
<path d="M30798 14290 c-51 -15 -98 -51 -122 -93 -31 -53 -499 -1276 -556
-1452 -105 -325 -112 -409 -108 -1275 3 -632 4 -656 23 -695 11 -22 36 -48 55
-60 33 -19 54 -20 443 -23 269 -2 427 1 461 8 61 12 101 47 116 101 6 19 10
191 10 401 l0 368 435 0 435 0 0 -337 c0 -367 7 -442 42 -481 55 -58 43 -57
538 -57 439 0 456 1 490 20 74 44 71 -5 67 890 l-3 800 -27 107 c-14 58 -46
168 -71 245 -68 207 -531 1410 -560 1453 -15 23 -45 47 -77 64 l-53 26 -755
-1 c-416 0 -768 -4 -783 -9z m872 -987 c28 -25 44 -69 151 -417 66 -213 118
-390 116 -392 -2 -2 -175 -3 -384 -2 l-380 3 108 350 c60 193 114 366 119 387
6 20 23 50 39 67 28 30 32 31 115 31 79 0 88 -2 116 -27z"/>
<path d="M33820 14282 c-23 -11 -43 -33 -57 -62 l-23 -44 0 -1671 c0 -1061 4
-1683 10 -1704 15 -53 55 -89 114 -101 35 -7 469 -10 1366 -8 1302 3 1315 3
1350 23 74 43 70 -11 70 950 0 961 4 907 -70 950 -34 19 -51 20 -477 20 -430
0 -442 -1 -469 -21 -15 -11 -37 -33 -48 -48 -20 -27 -21 -41 -24 -472 l-3
-444 -339 0 -340 0 -2 1284 -3 1284 -25 27 c-52 56 -42 55 -537 55 -416 0
-461 -2 -493 -18z"/>
<path d="M36925 14281 c-49 -30 -65 -55 -75 -117 -13 -75 -12 -931 0 -1129 10
-163 24 -225 75 -325 18 -36 223 -320 454 -630 l421 -565 0 -348 c0 -372 2
-389 51 -434 13 -12 44 -26 69 -32 60 -14 880 -14 940 0 54 12 97 50 110 98 6
21 10 182 10 374 l0 338 413 560 c228 309 430 592 451 629 20 37 46 103 58
146 21 77 22 97 25 704 l4 625 -23 45 c-42 82 -30 80 -536 80 -476 0 -470 1
-520 -52 -14 -16 -26 -46 -32 -84 -6 -32 -10 -268 -10 -524 0 -428 -2 -468
-19 -505 -28 -62 -269 -437 -297 -462 -21 -19 -37 -23 -94 -23 -57 0 -73 4
-94 23 -28 26 -269 400 -300 467 -20 43 -21 65 -26 562 l-5 516 -25 27 c-52
56 -42 55 -537 55 -428 0 -460 -1 -488 -19z"/>
<path d="M22220 8282 c-23 -11 -43 -33 -57 -62 l-23 -44 0 -1671 c0 -1069 4
-1683 10 -1706 13 -48 56 -86 110 -98 64 -15 2381 -15 2449 0 63 13 107 59
116 121 3 24 5 197 3 385 -3 327 -4 343 -24 369 -11 15 -33 37 -48 48 -27 21
-38 21 -757 24 l-729 3 0 209 0 210 518 0 c577 0 562 -2 610 70 l23 34 -3 357
-3 357 -25 27 c-53 56 -36 55 -600 55 l-520 0 0 190 0 190 718 0 c689 0 719 1
760 20 33 15 47 29 62 62 18 40 20 68 20 393 0 344 0 352 -22 395 -44 87 68
80 -1323 80 -1151 0 -1232 -1 -1265 -18z"/>
<path d="M25490 8283 c-23 -12 -43 -34 -57 -63 l-23 -44 0 -1671 c0 -1061 4
-1683 10 -1704 15 -54 55 -89 116 -101 34 -7 194 -10 466 -8 394 3 415 4 448
23 74 43 70 -17 70 1000 l0 910 160 -294 c88 -162 172 -308 187 -324 16 -16
46 -39 68 -50 37 -21 54 -22 245 -22 192 0 208 1 246 22 22 12 54 37 71 56 16
18 97 158 179 310 l149 277 5 -898 c5 -880 5 -898 25 -932 12 -19 36 -43 55
-55 34 -19 50 -20 495 -20 444 0 461 1 495 20 19 12 43 36 53 55 16 33 17 132
15 1742 l-3 1707 -29 30 c-15 16 -40 35 -55 41 -18 7 -176 10 -512 8 l-486 -3
-41 -28 c-22 -16 -51 -45 -65 -65 -13 -20 -131 -233 -261 -472 -131 -239 -249
-446 -264 -459 -21 -19 -33 -22 -71 -18 -30 3 -50 12 -61 27 -9 12 -120 209
-246 438 -257 468 -288 517 -340 552 l-38 25 -485 3 c-448 2 -489 1 -521 -15z"/>
<path d="M30352 8287 c-44 -17 -99 -62 -117 -98 -30 -57 -498 -1284 -546
-1431 -26 -81 -61 -203 -76 -270 l-28 -123 -3 -750 c-2 -412 0 -769 3 -793 4
-27 17 -55 36 -77 47 -53 82 -56 546 -53 389 3 410 4 443 23 69 41 70 45 70
473 l0 382 440 0 440 0 0 -373 c0 -367 0 -373 23 -417 15 -32 34 -51 62 -65
38 -19 63 -20 458 -23 276 -2 437 1 471 8 61 12 101 47 116 101 6 21 10 313
10 753 0 599 -3 736 -16 823 -18 126 -51 257 -104 413 -43 130 -511 1353 -534
1399 -21 39 -79 86 -125 100 -55 16 -1523 14 -1569 -2z m889 -988 c16 -17 33
-47 39 -67 5 -21 59 -194 119 -387 l108 -350 -380 -3 c-209 -1 -382 0 -384 2
-2 2 50 179 116 392 143 464 131 444 267 444 83 0 87 -1 115 -31z"/>
<path d="M33305 8281 c-81 -50 -88 -90 -83 -514 3 -301 4 -324 23 -356 11 -19
33 -43 48 -55 27 -20 42 -21 318 -24 l289 -3 0 -834 0 -834 -282 -3 c-264 -3
-285 -4 -318 -23 -19 -12 -43 -36 -55 -55 -19 -33 -20 -51 -20 -400 0 -345 1
-367 20 -405 11 -22 36 -48 55 -60 35 -20 48 -20 1175 -20 1128 0 1140 0 1175
20 69 41 70 46 70 460 0 414 -1 419 -70 460 -33 19 -55 20 -312 23 l-278 3 0
835 0 834 273 0 c304 0 320 3 365 69 l23 35 -3 392 -3 392 -25 27 c-54 58 18
55 -1217 55 -1090 0 -1139 -1 -1168 -19z"/>
<path d="M36410 8282 c-23 -11 -43 -33 -57 -62 l-23 -44 0 -1671 c0 -1061 4
-1683 10 -1704 15 -53 55 -89 114 -101 35 -7 469 -10 1366 -8 1302 3 1315 3
1350 23 74 43 70 -11 70 950 0 961 4 907 -70 950 -34 19 -51 20 -477 20 -430
0 -442 -1 -469 -21 -15 -11 -37 -33 -48 -48 -20 -27 -21 -41 -24 -472 l-3
-444 -339 0 -340 0 0 1273 c0 1252 0 1273 -20 1305 -11 18 -34 41 -52 52 -32
19 -52 20 -493 20 -418 0 -463 -2 -495 -18z"/>
<path d="M20259 6071 c-50 -16 -71 -33 -90 -74 -17 -40 -19 -74 -19 -602 0
-339 4 -574 10 -596 13 -48 56 -86 110 -98 61 -14 1079 -14 1140 0 54 12 97
50 110 98 6 22 10 257 10 596 0 529 -2 562 -19 602 -37 81 -11 78 -656 80
-313 1 -582 -2 -596 -6z"/>
<path d="M5590 985 l0 -595 75 0 75 0 0 595 0 595 -75 0 -75 0 0 -595z"/>
<path d="M7670 1344 l0 -237 -20 26 c-11 14 -46 38 -78 54 -50 25 -68 28 -147
28 -77 -1 -98 -5 -146 -28 -147 -71 -230 -243 -216 -446 9 -140 67 -253 160
-317 61 -42 103 -54 197 -54 62 0 86 5 135 28 33 16 75 45 92 65 18 21 35 37
38 37 3 0 5 -27 5 -60 l0 -60 70 0 70 0 0 600 0 600 -80 0 -80 0 0 -236z
m-132 -269 c47 -20 78 -50 105 -100 20 -36 22 -56 22 -181 0 -139 0 -141 -30
-190 -65 -104 -189 -138 -291 -79 -141 83 -168 352 -49 493 57 68 159 92 243
57z"/>
<path d="M9720 980 l0 -600 80 0 80 0 0 158 0 158 33 32 34 33 137 -191 137
-190 94 0 c52 0 95 2 95 5 0 3 -79 111 -177 240 l-176 236 25 27 c14 15 82 88
151 162 70 74 127 138 127 143 0 4 -42 7 -92 6 l-93 0 -132 -157 c-73 -86
-139 -166 -147 -177 -14 -18 -15 19 -16 348 l0 367 -80 0 -80 0 0 -600z"/>
<path d="M15650 975 l0 -595 80 0 80 0 0 595 0 595 -80 0 -80 0 0 -595z"/>
<path d="M27630 1334 l0 -237 -20 26 c-11 14 -46 38 -78 54 -49 24 -69 28
-142 28 -70 0 -95 -5 -141 -27 -79 -36 -133 -89 -173 -168 -104 -208 -53 -486
108 -597 59 -40 112 -55 194 -55 93 1 156 26 219 86 l53 52 0 -63 0 -63 70 0
70 0 0 600 0 600 -80 0 -80 0 0 -236z m-132 -269 c51 -22 81 -52 108 -110 21
-44 24 -65 24 -170 0 -128 -15 -182 -63 -233 -65 -70 -178 -87 -261 -38 -182
107 -159 478 34 555 38 15 116 13 158 -4z"/>
<path d="M28370 970 l0 -600 64 0 c71 0 76 5 76 83 l0 37 37 -41 c118 -130
346 -126 481 8 60 61 100 150 113 256 28 213 -49 390 -200 464 -48 24 -68 28
-141 28 -71 0 -94 -5 -144 -28 -32 -15 -74 -43 -92 -63 l-34 -35 0 245 0 246
-80 0 -80 0 0 -600z m501 75 c118 -77 154 -279 78 -433 -24 -49 -42 -71 -76
-92 -87 -55 -186 -49 -262 16 -66 57 -81 101 -81 235 1 167 32 233 132 284 68
34 148 31 209 -10z"/>
<path d="M33030 965 l0 -595 80 0 80 0 0 595 0 595 -80 0 -80 0 0 -595z"/>
<path d="M39990 965 l0 -595 80 0 80 0 0 595 0 595 -80 0 -80 0 0 -595z"/>
<path d="M1505 1508 c-33 -92 -375 -1103 -375 -1109 0 -5 36 -9 79 -9 l80 0
58 175 58 175 194 -2 194 -3 60 -172 60 -173 83 0 83 0 -146 428 c-80 235
-166 489 -191 565 l-47 137 -93 0 c-65 0 -94 -4 -97 -12z m175 -403 c39 -121
74 -226 77 -232 4 -10 -32 -13 -156 -13 -89 0 -161 3 -161 6 0 3 31 99 69 212
39 114 73 225 77 247 8 47 -1 69 94 -220z"/>
<path d="M2390 1455 l0 -65 170 0 170 0 0 -500 0 -500 80 0 80 0 0 500 0 500
170 0 170 0 0 65 0 65 -420 0 -420 0 0 -65z"/>
<path d="M22085 1514 c-11 -2 -50 -6 -87 -9 l-68 -7 0 -559 0 -559 75 0 75 0
0 220 0 220 108 0 c212 0 343 64 409 198 25 51 28 67 28 162 0 94 -3 110 -27
155 -67 127 -201 187 -413 184 -44 -1 -89 -3 -100 -5z m244 -139 c99 -34 144
-97 144 -200 0 -124 -72 -201 -211 -226 -31 -6 -85 -8 -119 -4 l-63 7 0 213
c0 161 3 215 13 218 29 12 196 6 236 -8z"/>
<path d="M15271 1484 c-31 -39 -28 -103 5 -135 31 -29 88 -32 127 -6 32 21 45
75 27 118 -16 38 -37 49 -94 49 -36 0 -48 -5 -65 -26z"/>
<path d="M19295 1485 c-27 -26 -34 -89 -15 -124 24 -45 119 -51 156 -10 28 31
26 100 -5 133 -34 36 -101 37 -136 1z"/>
<path d="M32695 1503 c-88 -20 -96 -155 -11 -183 77 -25 145 32 130 109 -10
51 -66 86 -119 74z"/>
<path d="M39613 1476 c-23 -20 -28 -32 -28 -71 0 -39 5 -51 29 -72 25 -21 37
-24 75 -20 58 6 81 33 81 94 0 33 -6 50 -25 68 -33 34 -93 34 -132 1z"/>
<path d="M3395 1213 c-56 -12 -145 -46 -155 -58 -9 -11 -8 -26 5 -65 9 -28 20
-49 23 -48 86 46 110 52 199 52 77 1 96 -2 120 -20 32 -23 58 -72 67 -126 l7
-38 -53 0 c-137 -1 -290 -50 -356 -113 -70 -66 -98 -171 -71 -264 17 -61 87
-133 145 -151 102 -30 235 -4 306 61 l36 33 7 -43 6 -43 68 0 67 0 -3 197 c-7
429 -6 414 -41 486 -36 72 -80 109 -158 133 -44 13 -173 17 -219 7z m265 -488
c0 -113 -32 -175 -112 -216 -21 -11 -58 -19 -84 -19 -83 0 -134 50 -134 133 0
105 107 171 288 176 l42 1 0 -75z"/>
<path d="M4295 1207 c-211 -56 -325 -221 -312 -452 7 -128 34 -194 111 -271
44 -44 77 -67 121 -84 81 -31 209 -38 307 -16 105 24 104 22 88 94 l-12 60
-56 -19 c-113 -39 -244 -19 -315 49 -81 76 -110 230 -67 346 28 75 89 137 155
159 66 23 162 22 225 -2 37 -14 52 -16 55 -8 2 7 10 34 19 61 9 27 16 51 16
52 0 1 -21 10 -47 19 -64 22 -223 28 -288 12z"/>
<path d="M4932 1209 c-51 -10 -152 -54 -152 -67 0 -4 7 -29 16 -55 16 -46 27
-57 39 -37 14 22 145 52 209 48 100 -6 139 -44 161 -154 l6 -31 -87 -7 c-251
-19 -384 -110 -401 -272 -8 -79 12 -139 66 -195 52 -54 94 -69 188 -69 77 0
156 28 205 73 l36 33 7 -43 6 -43 68 0 67 0 -3 197 c-6 395 -8 414 -32 470
-30 69 -94 127 -162 147 -56 17 -166 19 -237 5z m278 -486 c-1 -148 -72 -233
-196 -233 -86 0 -134 47 -134 133 0 106 106 170 293 176 l37 1 0 -77z"/>
<path d="M8290 1205 c-190 -54 -302 -231 -287 -455 10 -143 67 -251 169 -320
73 -48 140 -64 254 -58 71 4 101 10 149 33 121 58 196 165 217 313 32 216 -62
409 -230 473 -75 28 -198 34 -272 14z m173 -116 c55 -15 110 -69 143 -141 24
-53 28 -76 29 -148 0 -140 -52 -242 -148 -291 -56 -29 -149 -23 -201 11 -148
100 -169 385 -38 513 60 59 135 78 215 56z"/>
<path d="M9260 1209 c-134 -23 -247 -108 -303 -227 -28 -59 -32 -79 -35 -173
-8 -204 62 -335 218 -408 50 -24 66 -26 185 -26 101 0 142 4 183 19 47 16 53
21 48 40 -3 11 -9 38 -12 59 -6 33 -10 38 -28 33 -119 -31 -167 -37 -221 -26
-187 39 -277 259 -183 447 67 134 231 179 400 108 13 -5 19 4 32 48 9 30 16
60 16 66 0 30 -202 57 -300 40z"/>
<path d="M10744 1210 c-200 -42 -328 -263 -295 -504 20 -145 93 -250 209 -304
53 -25 66 -27 197 -27 110 0 154 4 203 19 56 17 63 22 58 40 -3 12 -9 38 -12
59 -6 33 -10 38 -28 33 -98 -29 -139 -36 -198 -36 -158 0 -256 83 -282 238
l-5 32 283 0 283 0 6 37 c9 55 -10 169 -39 233 -31 69 -92 132 -157 160 -54
24 -161 34 -223 20z m143 -121 c65 -24 122 -109 123 -181 l0 -38 -205 0 c-228
0 -216 -5 -190 71 20 57 66 114 113 139 41 21 115 26 159 9z"/>
<path d="M11644 1210 c-66 -15 -141 -83 -167 -150 -3 -8 -6 20 -6 63 l-1 77
-71 0 -72 0 7 -77 c3 -42 6 -226 6 -410 l0 -333 74 0 74 0 4 258 c3 237 5 261
24 302 40 85 125 139 200 127 l34 -6 0 74 c0 89 -13 98 -106 75z"/>
<path d="M12483 1210 c-149 -31 -257 -145 -293 -312 -8 -34 -11 -95 -8 -156 4
-84 10 -109 35 -165 75 -159 228 -230 447 -207 89 10 186 36 186 50 0 5 -5 32
-11 60 -9 42 -14 50 -27 45 -96 -37 -238 -45 -317 -18 -89 30 -165 134 -165
225 l0 28 283 2 282 3 3 50 c7 100 -29 221 -88 295 -62 78 -212 124 -327 100z
m175 -142 c43 -29 75 -87 87 -155 l7 -43 -211 0 c-133 0 -211 4 -211 10 0 22
40 113 64 144 59 78 181 98 264 44z"/>
<path d="M13393 1210 c-57 -12 -91 -31 -139 -80 l-42 -41 -6 55 -7 56 -71 0
c-68 0 -70 -1 -64 -22 3 -13 6 -197 6 -410 l0 -388 74 0 75 0 3 273 c3 257 4
274 25 313 63 117 191 154 266 77 57 -61 61 -83 65 -385 l4 -278 74 0 74 0 0
273 0 273 26 52 c28 57 60 85 116 100 77 21 143 -14 182 -98 20 -42 21 -65 24
-322 l3 -278 75 0 74 0 0 283 c0 307 -7 366 -56 440 -98 149 -336 150 -449 1
l-31 -41 -23 39 c-29 51 -90 94 -152 107 -56 12 -66 12 -126 1z"/>
<path d="M14648 1210 c-61 -8 -174 -46 -184 -62 -7 -11 15 -96 26 -103 3 -2
35 8 71 22 78 32 186 37 236 10 45 -24 75 -72 81 -128 l5 -49 -66 0 c-198 0
-369 -88 -405 -208 -28 -92 -9 -198 46 -255 51 -54 98 -71 192 -71 96 0 150
18 213 74 l37 32 0 -30 c0 -57 6 -62 79 -62 l66 0 -3 262 c-2 293 -11 371 -50
441 -55 102 -182 149 -344 127z m240 -503 c-6 -111 -35 -164 -110 -201 -116
-58 -221 -7 -221 109 0 107 100 172 272 174 l64 1 -5 -83z"/>
<path d="M16525 1194 c-96 -34 -155 -117 -155 -218 0 -102 49 -164 170 -218
169 -76 195 -99 186 -173 -13 -104 -153 -135 -298 -65 -23 11 -43 20 -44 20
-1 0 -11 -27 -23 -61 l-20 -60 42 -19 c60 -27 170 -44 236 -36 169 19 261 103
261 239 0 119 -47 177 -206 252 -61 29 -121 63 -133 76 -33 36 -28 84 13 125
32 32 38 34 98 34 41 0 78 -7 107 -20 24 -11 47 -20 52 -20 4 0 16 25 26 56
20 64 19 65 -61 89 -62 19 -198 18 -251 -1z"/>
<path d="M17263 1196 c-136 -44 -230 -171 -255 -343 -23 -160 20 -303 119
-393 81 -74 142 -94 288 -94 97 0 134 4 193 22 59 18 72 26 68 40 -3 9 -10 36
-15 58 l-11 42 -61 -19 c-72 -23 -215 -25 -272 -5 -84 31 -146 112 -162 214
l-7 42 286 0 286 0 0 79 c0 153 -63 278 -170 336 -48 26 -67 30 -150 32 -60 2
-110 -2 -137 -11z m180 -110 c69 -25 112 -84 124 -171 l6 -45 -207 0 -206 0 0
23 c0 33 45 118 79 151 53 51 132 67 204 42z"/>
<path d="M18148 1182 c-48 -27 -77 -59 -103 -109 -14 -27 -15 -25 -15 50 l0
77 -72 0 -71 0 6 -137 c4 -75 7 -259 7 -410 l0 -273 74 0 75 0 3 258 c4 280 8
304 66 365 39 42 75 57 132 57 l50 0 0 75 0 75 -52 0 c-40 0 -65 -7 -100 -28z"/>
<path d="M19923 1195 c-107 -29 -186 -86 -241 -173 -49 -76 -65 -148 -60 -271
3 -94 7 -114 35 -173 72 -153 212 -228 403 -215 82 6 184 29 194 45 4 7 -8 78
-19 109 -3 9 -19 7 -59 -8 -235 -82 -439 91 -395 335 19 106 70 175 159 215
54 25 174 28 235 6 22 -8 43 -15 47 -15 13 0 42 110 32 120 -36 36 -235 51
-331 25z"/>
<path d="M20623 1195 c-146 -45 -239 -165 -265 -342 -35 -244 81 -437 290
-482 135 -28 392 11 378 57 -3 10 -10 35 -15 58 l-11 41 -57 -20 c-86 -29
-222 -28 -288 2 -27 12 -62 34 -77 48 -30 28 -62 98 -72 156 l-7 37 287 0 286
0 -4 103 c-3 90 -7 110 -36 171 -60 127 -154 187 -295 185 -40 0 -91 -6 -114
-14z m197 -124 c44 -23 88 -92 96 -153 l7 -48 -207 0 c-164 0 -206 3 -206 13
0 39 37 115 75 152 65 65 152 79 235 36z"/>
<path d="M23007 1200 c-180 -46 -297 -211 -297 -420 0 -159 72 -299 191 -373
95 -58 268 -63 381 -10 125 59 199 163 220 313 31 210 -55 392 -219 467 -44
21 -75 27 -147 29 -50 2 -108 -1 -129 -6z m189 -129 c22 -10 57 -38 77 -61 51
-60 72 -127 72 -230 -1 -72 -5 -95 -29 -148 -93 -204 -323 -202 -418 3 -33 72
-33 227 0 300 59 130 185 187 298 136z"/>
<path d="M25089 1191 c-169 -54 -262 -204 -262 -421 0 -163 50 -271 157 -344
80 -54 149 -70 285 -63 105 5 213 26 224 45 3 4 0 31 -6 60 -10 47 -14 53 -32
48 -151 -40 -252 -44 -327 -13 -79 33 -137 113 -151 210 l-6 37 283 0 283 0 6
37 c14 82 -20 219 -74 299 -73 107 -234 152 -380 105z m207 -126 c48 -28 94
-107 94 -162 l0 -33 -205 0 c-233 0 -224 -5 -181 85 25 54 76 108 116 124 49
19 130 13 176 -14z"/>
<path d="M25985 1186 c-53 -25 -80 -50 -114 -106 l-21 -35 0 73 0 72 -71 0
-72 0 7 -77 c3 -42 6 -226 6 -410 l0 -333 74 0 75 0 3 258 3 257 28 58 c38 76
86 109 168 115 l60 4 -3 72 -3 71 -45 3 c-31 1 -60 -5 -95 -22z"/>
<path d="M26469 1197 c-177 -50 -279 -207 -279 -427 0 -185 72 -312 213 -376
87 -40 245 -46 367 -15 46 11 85 23 88 26 8 7 -18 115 -27 115 -5 0 -28 -7
-52 -17 -30 -11 -77 -16 -149 -17 -96 -1 -110 2 -157 26 -28 15 -64 43 -78 62
-28 36 -55 112 -55 152 l0 24 283 2 282 3 3 52 c6 108 -34 233 -97 306 -69 78
-225 117 -342 84z m181 -127 c47 -24 85 -78 99 -140 6 -25 11 -48 11 -52 0 -5
-95 -8 -210 -8 l-210 0 6 28 c11 43 50 115 76 138 62 57 156 71 228 34z"/>
<path d="M30758 1197 c-57 -16 -121 -58 -144 -93 -22 -32 -34 -16 -34 44 l0
42 -71 0 -72 0 7 -46 c3 -26 6 -210 6 -410 l0 -364 75 0 75 0 0 258 c0 294 6
328 71 393 90 90 214 65 263 -53 13 -31 16 -87 16 -318 l0 -280 80 0 80 0 0
277 c0 260 1 279 21 320 39 80 115 121 192 103 49 -11 84 -42 111 -100 19 -42
21 -65 24 -322 l4 -278 74 0 74 0 0 278 c0 302 -7 356 -54 436 -89 152 -314
165 -440 25 l-44 -49 -35 49 c-58 81 -173 117 -279 88z"/>
<path d="M32020 1200 c-62 -10 -134 -34 -167 -55 -21 -14 -22 -16 -6 -62 9
-27 17 -50 19 -51 1 -2 33 9 71 24 88 36 190 39 243 9 41 -24 80 -93 80 -142
l0 -33 -67 0 c-136 -1 -259 -40 -333 -106 -58 -52 -80 -103 -80 -187 0 -107
38 -174 125 -220 61 -32 181 -30 255 4 30 15 68 38 83 53 15 14 30 26 33 26 2
0 4 -20 4 -45 l0 -45 73 0 73 0 -3 93 c-1 50 -5 184 -7 297 -4 239 -15 288
-77 355 -22 23 -61 52 -87 63 -57 24 -157 34 -232 22z m240 -500 c0 -95 -14
-134 -63 -177 -58 -51 -133 -65 -192 -37 -47 22 -69 59 -69 119 -2 107 95 171
262 174 l62 1 0 -80z"/>
<path d="M5879 1178 c5 -13 75 -187 156 -387 112 -278 145 -370 140 -390 -18
-73 -130 -197 -210 -232 -25 -11 -45 -23 -45 -26 0 -4 7 -33 16 -65 20 -68 28
-71 112 -31 36 16 82 51 123 93 55 56 77 89 132 201 52 106 313 763 335 842 4
16 -3 18 -79 15 l-84 -3 -102 -305 c-57 -168 -103 -307 -103 -310 0 -3 -22 58
-49 135 -26 77 -77 218 -112 313 l-63 172 -88 0 c-87 0 -87 0 -79 -22z"/>
<path d="M15260 790 l0 -410 80 0 80 0 0 410 0 410 -80 0 -80 0 0 -410z"/>
<path d="M33677 1189 c-133 -31 -241 -133 -287 -270 -29 -86 -25 -244 9 -331
61 -156 234 -252 422 -234 72 8 167 30 181 44 4 4 3 34 -3 66 -11 52 -14 57
-33 51 -123 -39 -174 -43 -252 -20 -63 19 -122 69 -154 131 -33 65 -40 189
-15 265 22 65 85 135 145 162 56 25 175 27 239 3 24 -9 46 -14 50 -11 9 5 36
113 30 120 -3 2 -31 11 -64 20 -64 16 -206 19 -268 4z"/>
<path d="M34362 1180 c-142 -51 -228 -165 -253 -334 -21 -143 24 -299 111
-386 23 -23 72 -56 108 -73 62 -30 75 -32 167 -31 113 1 160 14 242 70 57 39
113 114 139 184 9 25 19 90 21 147 5 84 2 113 -16 171 -38 126 -112 209 -226
251 -75 28 -217 29 -293 1z m237 -120 c166 -84 190 -405 40 -534 -141 -120
-330 -28 -369 180 -28 150 37 313 144 360 47 20 140 18 185 -6z"/>
<path d="M36770 1184 c-101 -37 -181 -117 -220 -221 -92 -246 -4 -508 197
-583 98 -37 256 -37 383 0 65 19 68 28 35 127 -3 8 -22 6 -67 -8 -42 -13 -93
-20 -152 -20 -78 -1 -95 2 -144 28 -70 35 -111 91 -127 170 l-12 58 282 3 282
2 6 41 c13 98 -29 247 -89 318 -59 68 -121 94 -234 98 -69 2 -107 -1 -140 -13z
m175 -105 c72 -20 135 -110 135 -193 l0 -26 -206 0 -206 0 6 32 c10 51 49 119
83 147 60 47 117 60 188 40z"/>
<path d="M37695 1188 c-42 -15 -102 -60 -131 -99 l-24 -33 0 62 0 62 -71 0
-72 0 6 -67 c4 -38 7 -220 7 -405 l0 -338 75 0 75 0 0 258 c0 207 3 267 15
303 55 156 236 190 307 57 22 -42 23 -53 26 -330 l3 -288 79 0 79 0 3 288 3
289 28 41 c36 56 96 86 157 80 63 -6 102 -36 131 -100 22 -50 23 -67 27 -325
l4 -273 74 0 74 0 0 263 c0 281 -8 353 -45 427 -30 58 -92 116 -142 129 -112
31 -222 3 -302 -77 -46 -46 -56 -51 -63 -37 -22 38 -72 85 -112 104 -47 23
-157 28 -211 9z"/>
<path d="M38923 1185 c-74 -20 -136 -53 -130 -70 3 -7 11 -31 18 -54 12 -40
22 -50 34 -32 3 5 35 19 71 31 84 28 189 25 231 -6 37 -28 60 -69 69 -122 l7
-42 -54 0 c-137 -1 -279 -46 -354 -111 -93 -82 -109 -236 -34 -339 79 -109
277 -121 404 -25 24 19 46 31 49 28 3 -4 6 -21 6 -40 l0 -33 76 0 c69 0 75 2
69 18 -4 9 -10 150 -14 312 l-6 295 -28 57 c-51 105 -135 149 -281 147 -44 0
-105 -7 -133 -14z m295 -498 c-2 -79 -7 -99 -27 -129 -38 -55 -84 -81 -149
-85 -67 -4 -97 9 -129 56 -43 63 -21 152 47 197 41 28 140 52 213 53 l49 1 -4
-93z"/>
<path d="M18400 1138 c11 -29 80 -210 153 -403 l133 -350 78 0 77 0 158 400
157 400 -79 3 c-44 2 -82 1 -84 -2 -7 -7 -213 -600 -213 -613 0 -20 -20 -15
-21 5 0 9 -46 150 -103 312 l-103 295 -87 3 -86 3 20 -53z"/>
<path d="M19280 785 l0 -405 80 0 80 0 0 405 0 405 -80 0 -80 0 0 -405z"/>
<path d="M23584 1173 c3 -10 55 -184 116 -388 61 -203 113 -378 116 -387 5
-15 17 -18 78 -18 l73 0 73 211 c40 116 85 256 100 311 l26 99 28 -98 c15 -54
58 -196 97 -316 l70 -218 70 3 71 3 129 400 c71 220 129 404 129 408 0 4 -35
7 -77 5 l-78 -3 -68 -240 c-38 -132 -77 -276 -86 -320 l-18 -80 -12 45 c-16
59 -92 312 -142 473 l-40 127 -68 0 -67 0 -82 -257 c-45 -142 -89 -287 -98
-323 l-17 -65 -69 270 c-38 148 -75 294 -83 323 l-16 52 -80 0 c-72 0 -80 -2
-75 -17z"/>
<path d="M29219 1143 c10 -27 80 -201 155 -388 75 -187 136 -347 136 -355 0
-27 -58 -116 -106 -164 -25 -26 -70 -59 -98 -73 -28 -14 -53 -27 -55 -29 -2
-2 5 -33 15 -68 17 -61 20 -65 44 -59 57 13 143 69 200 130 83 89 158 245 325
682 74 194 135 357 135 363 0 5 -36 8 -82 6 l-82 -3 -96 -285 c-53 -157 -100
-296 -104 -310 -5 -21 -13 -6 -44 85 -21 61 -72 201 -113 312 l-74 203 -87 0
-88 0 19 -47z"/>
<path d="M32640 780 l0 -410 80 0 80 0 0 410 0 410 -80 0 -80 0 0 -410z"/>
<path d="M34973 1178 c2 -7 58 -192 123 -411 l119 -398 74 3 74 3 83 248 c46
137 88 273 95 303 7 30 15 54 18 54 3 0 20 -52 38 -114 18 -63 59 -200 93
-305 l61 -191 72 0 73 0 127 395 c70 218 130 402 133 410 5 13 -7 15 -74 15
-68 0 -81 -3 -86 -17 -38 -126 -156 -562 -162 -599 l-7 -48 -23 90 c-13 50
-57 198 -98 330 l-74 239 -65 3 -66 3 -75 -233 c-41 -128 -84 -267 -96 -308
-12 -41 -23 -82 -26 -90 -3 -8 -37 107 -75 255 -38 149 -75 293 -82 320 l-13
50 -83 3 c-64 2 -82 0 -78 -10z"/>
<path d="M39600 775 l0 -405 80 0 80 0 0 405 0 405 -80 0 -80 0 0 -405z"/>
<path d="M21241 566 c-65 -36 -66 -161 -2 -196 37 -19 100 -12 126 14 90 90
-14 243 -124 182z"/>
<path d="M36238 554 c-61 -33 -60 -157 2 -189 79 -41 160 7 160 95 0 88 -84
137 -162 94z"/>
</g>
</svg>
